# xmcd CD database file
#
# Track frame offsets:
#	182
#	13065
#	25870
#	34647
#	50542
#	63632
#	79787
#	93775
#	108632
#	123207
#	133610
#	150290
#	159380
#
# Disc length: 2339 seconds
#
# Revision: 0
# Processed by: cddbd v1.5.2PL0 Copyright (c) Steve Scherf et al.
# Submitted via: CDex 1.51
#
DISCID=9809210d
DTITLE=Damnations - Half Mad Moon
DYEAR=1998
DGENRE=Country
TTITLE0=Things I Once Adored
TTITLE1=No Sign Of Water
TTITLE2=Down The Line
TTITLE3=Spit And Tears
TTITLE4=Jack's Waltz
TTITLE5=Kansas
TTITLE6=Black Widow
TTITLE7=Half Mad Moon
TTITLE8=Commercial Zone Blues
TTITLE9=Unholy Train
TTITLE10=For Awhile
TTITLE11=Finger The Pie
TTITLE12=Catch You Alive
EXTD=YEAR: 1998
EXTT0=
EXTT1=
EXTT2=
EXTT3=
EXTT4=
EXTT5=
EXTT6=
EXTT7=
EXTT8=
EXTT9=
EXTT10=
EXTT11=
EXTT12=
PLAYORDER=
